<mxfile host="app.diagrams.net" agent="Mozilla/5.0 (Macintosh; Intel Mac OS X 10_15_7) AppleWebKit/537.36 (KHTML, like Gecko) Chrome/129.0.0.0 Safari/537.36" version="24.8.0">
  <diagram name="第 1 页" id="hKuk3zwHYtWREnpV2XQE">
    <mxGraphModel dx="1270" dy="713" grid="1" gridSize="10" guides="1" tooltips="1" connect="1" arrows="1" fold="1" page="1" pageScale="1" pageWidth="1920" pageHeight="1200" math="0" shadow="0">
      <root>
        <mxCell id="0" />
        <mxCell id="1" parent="0" />
        <mxCell id="vWhC-yQqH2UFi3h3dktY-1" value="写手" style="swimlane;fontStyle=0;childLayout=stackLayout;horizontal=1;startSize=26;fillColor=none;horizontalStack=0;resizeParent=1;resizeParentMax=0;resizeLast=0;collapsible=1;marginBottom=0;whiteSpace=wrap;html=1;" parent="1" vertex="1">
          <mxGeometry x="920" y="420" width="140" height="52" as="geometry" />
        </mxCell>
        <mxCell id="vWhC-yQqH2UFi3h3dktY-5" value="商家" style="swimlane;fontStyle=0;childLayout=stackLayout;horizontal=1;startSize=26;fillColor=none;horizontalStack=0;resizeParent=1;resizeParentMax=0;resizeLast=0;collapsible=1;marginBottom=0;whiteSpace=wrap;html=1;" parent="1" vertex="1">
          <mxGeometry x="650" y="290" width="140" height="52" as="geometry" />
        </mxCell>
        <mxCell id="vWhC-yQqH2UFi3h3dktY-6" value="需求" style="swimlane;fontStyle=0;childLayout=stackLayout;horizontal=1;startSize=26;fillColor=none;horizontalStack=0;resizeParent=1;resizeParentMax=0;resizeLast=0;collapsible=1;marginBottom=0;whiteSpace=wrap;html=1;" parent="1" vertex="1">
          <mxGeometry x="650" y="400" width="140" height="52" as="geometry" />
        </mxCell>
        <mxCell id="vWhC-yQqH2UFi3h3dktY-7" value="任务" style="swimlane;fontStyle=0;childLayout=stackLayout;horizontal=1;startSize=26;fillColor=none;horizontalStack=0;resizeParent=1;resizeParentMax=0;resizeLast=0;collapsible=1;marginBottom=0;whiteSpace=wrap;html=1;" parent="1" vertex="1">
          <mxGeometry x="650" y="520" width="140" height="52" as="geometry" />
        </mxCell>
        <mxCell id="vWhC-yQqH2UFi3h3dktY-8" value="文章" style="swimlane;fontStyle=0;childLayout=stackLayout;horizontal=1;startSize=26;fillColor=none;horizontalStack=0;resizeParent=1;resizeParentMax=0;resizeLast=0;collapsible=1;marginBottom=0;whiteSpace=wrap;html=1;" parent="1" vertex="1">
          <mxGeometry x="650" y="679" width="140" height="52" as="geometry" />
        </mxCell>
        <mxCell id="vWhC-yQqH2UFi3h3dktY-9" value="管理员" style="swimlane;fontStyle=0;childLayout=stackLayout;horizontal=1;startSize=26;fillColor=none;horizontalStack=0;resizeParent=1;resizeParentMax=0;resizeLast=0;collapsible=1;marginBottom=0;whiteSpace=wrap;html=1;" parent="1" vertex="1">
          <mxGeometry x="1380" y="230" width="140" height="52" as="geometry" />
        </mxCell>
        <mxCell id="vWhC-yQqH2UFi3h3dktY-10" value="审核员" style="swimlane;fontStyle=0;childLayout=stackLayout;horizontal=1;startSize=26;fillColor=none;horizontalStack=0;resizeParent=1;resizeParentMax=0;resizeLast=0;collapsible=1;marginBottom=0;whiteSpace=wrap;html=1;" parent="1" vertex="1">
          <mxGeometry x="1330" y="342" width="140" height="52" as="geometry" />
        </mxCell>
        <mxCell id="vWhC-yQqH2UFi3h3dktY-11" value="财务" style="swimlane;fontStyle=0;childLayout=stackLayout;horizontal=1;startSize=26;fillColor=none;horizontalStack=0;resizeParent=1;resizeParentMax=0;resizeLast=0;collapsible=1;marginBottom=0;whiteSpace=wrap;html=1;" parent="1" vertex="1">
          <mxGeometry x="1150" y="270" width="140" height="52" as="geometry" />
        </mxCell>
        <mxCell id="vWhC-yQqH2UFi3h3dktY-13" value="" style="endArrow=none;startArrow=none;endFill=0;startFill=0;endSize=8;html=1;verticalAlign=bottom;labelBackgroundColor=none;strokeWidth=3;rounded=0;exitX=0.5;exitY=1;exitDx=0;exitDy=0;entryX=0.5;entryY=0;entryDx=0;entryDy=0;" parent="1" source="vWhC-yQqH2UFi3h3dktY-5" target="vWhC-yQqH2UFi3h3dktY-6" edge="1">
          <mxGeometry width="160" relative="1" as="geometry">
            <mxPoint x="710" y="390" as="sourcePoint" />
            <mxPoint x="870" y="390" as="targetPoint" />
          </mxGeometry>
        </mxCell>
        <mxCell id="vWhC-yQqH2UFi3h3dktY-14" value="1..1" style="edgeLabel;html=1;align=center;verticalAlign=middle;resizable=0;points=[];" parent="vWhC-yQqH2UFi3h3dktY-13" vertex="1" connectable="0">
          <mxGeometry x="-0.8222" y="-1" relative="1" as="geometry">
            <mxPoint x="12" y="3" as="offset" />
          </mxGeometry>
        </mxCell>
        <mxCell id="vWhC-yQqH2UFi3h3dktY-15" value="0..*" style="edgeLabel;html=1;align=center;verticalAlign=middle;resizable=0;points=[];" parent="vWhC-yQqH2UFi3h3dktY-13" vertex="1" connectable="0">
          <mxGeometry x="0.7862" y="1" relative="1" as="geometry">
            <mxPoint x="10" y="-3" as="offset" />
          </mxGeometry>
        </mxCell>
        <mxCell id="vWhC-yQqH2UFi3h3dktY-19" value="" style="endArrow=none;startArrow=diamondThin;endFill=0;startFill=1;html=1;verticalAlign=bottom;labelBackgroundColor=none;strokeWidth=1;startSize=8;endSize=8;rounded=0;exitX=0.5;exitY=1;exitDx=0;exitDy=0;entryX=0.5;entryY=0;entryDx=0;entryDy=0;" parent="1" source="vWhC-yQqH2UFi3h3dktY-6" target="vWhC-yQqH2UFi3h3dktY-7" edge="1">
          <mxGeometry width="160" relative="1" as="geometry">
            <mxPoint x="790" y="490" as="sourcePoint" />
            <mxPoint x="950" y="490" as="targetPoint" />
          </mxGeometry>
        </mxCell>
        <mxCell id="vWhC-yQqH2UFi3h3dktY-20" value="1..*" style="edgeLabel;html=1;align=center;verticalAlign=middle;resizable=0;points=[];" parent="vWhC-yQqH2UFi3h3dktY-19" vertex="1" connectable="0">
          <mxGeometry x="0.7619" y="1" relative="1" as="geometry">
            <mxPoint x="9" y="-1" as="offset" />
          </mxGeometry>
        </mxCell>
        <mxCell id="vWhC-yQqH2UFi3h3dktY-24" value="" style="endArrow=none;startArrow=diamondThin;endFill=0;startFill=1;html=1;verticalAlign=bottom;labelBackgroundColor=none;strokeWidth=1;startSize=8;endSize=8;rounded=0;exitX=0.5;exitY=1;exitDx=0;exitDy=0;entryX=0.5;entryY=0;entryDx=0;entryDy=0;" parent="1" source="vWhC-yQqH2UFi3h3dktY-7" target="vWhC-yQqH2UFi3h3dktY-8" edge="1">
          <mxGeometry width="160" relative="1" as="geometry">
            <mxPoint x="830" y="572" as="sourcePoint" />
            <mxPoint x="830" y="640" as="targetPoint" />
          </mxGeometry>
        </mxCell>
        <mxCell id="vWhC-yQqH2UFi3h3dktY-25" value="1..1" style="edgeLabel;html=1;align=center;verticalAlign=middle;resizable=0;points=[];" parent="vWhC-yQqH2UFi3h3dktY-24" vertex="1" connectable="0">
          <mxGeometry x="0.7619" y="1" relative="1" as="geometry">
            <mxPoint x="9" y="-1" as="offset" />
          </mxGeometry>
        </mxCell>
        <mxCell id="vWhC-yQqH2UFi3h3dktY-29" value="接单写手" style="swimlane;fontStyle=0;childLayout=stackLayout;horizontal=1;startSize=26;fillColor=none;horizontalStack=0;resizeParent=1;resizeParentMax=0;resizeLast=0;collapsible=1;marginBottom=0;whiteSpace=wrap;html=1;" parent="1" vertex="1">
          <mxGeometry x="920" y="546" width="140" height="52" as="geometry" />
        </mxCell>
        <mxCell id="vWhC-yQqH2UFi3h3dktY-30" value="时间段" style="text;strokeColor=none;fillColor=none;align=left;verticalAlign=top;spacingLeft=4;spacingRight=4;overflow=hidden;rotatable=0;points=[[0,0.5],[1,0.5]];portConstraint=eastwest;whiteSpace=wrap;html=1;" parent="vWhC-yQqH2UFi3h3dktY-29" vertex="1">
          <mxGeometry y="26" width="140" height="26" as="geometry" />
        </mxCell>
        <mxCell id="vWhC-yQqH2UFi3h3dktY-32" value="" style="endArrow=none;startArrow=none;endFill=0;startFill=0;endSize=8;html=1;verticalAlign=bottom;labelBackgroundColor=none;strokeWidth=3;rounded=0;entryX=0.5;entryY=0;entryDx=0;entryDy=0;exitX=0.5;exitY=1;exitDx=0;exitDy=0;" parent="1" source="vWhC-yQqH2UFi3h3dktY-1" target="vWhC-yQqH2UFi3h3dktY-29" edge="1">
          <mxGeometry width="160" relative="1" as="geometry">
            <mxPoint x="990" y="442" as="sourcePoint" />
            <mxPoint x="900" y="520" as="targetPoint" />
          </mxGeometry>
        </mxCell>
        <mxCell id="vWhC-yQqH2UFi3h3dktY-34" value="0..*" style="edgeLabel;html=1;align=center;verticalAlign=middle;resizable=0;points=[];" parent="vWhC-yQqH2UFi3h3dktY-32" vertex="1" connectable="0">
          <mxGeometry x="0.7862" y="1" relative="1" as="geometry">
            <mxPoint x="10" y="-3" as="offset" />
          </mxGeometry>
        </mxCell>
        <mxCell id="vWhC-yQqH2UFi3h3dktY-43" value="1..1" style="edgeLabel;html=1;align=center;verticalAlign=middle;resizable=0;points=[];" parent="vWhC-yQqH2UFi3h3dktY-32" vertex="1" connectable="0">
          <mxGeometry x="-0.7423" y="1" relative="1" as="geometry">
            <mxPoint x="11" as="offset" />
          </mxGeometry>
        </mxCell>
        <mxCell id="vWhC-yQqH2UFi3h3dktY-36" value="审核过程" style="swimlane;fontStyle=0;childLayout=stackLayout;horizontal=1;startSize=26;fillColor=none;horizontalStack=0;resizeParent=1;resizeParentMax=0;resizeLast=0;collapsible=1;marginBottom=0;whiteSpace=wrap;html=1;" parent="1" vertex="1">
          <mxGeometry x="650" y="809" width="140" height="52" as="geometry" />
        </mxCell>
        <mxCell id="vWhC-yQqH2UFi3h3dktY-44" value="" style="endArrow=none;startArrow=none;endFill=0;startFill=0;endSize=8;html=1;verticalAlign=bottom;labelBackgroundColor=none;strokeWidth=3;rounded=0;entryX=1;entryY=0.25;entryDx=0;entryDy=0;exitX=0.25;exitY=1;exitDx=0;exitDy=0;" parent="1" source="vWhC-yQqH2UFi3h3dktY-1" target="vWhC-yQqH2UFi3h3dktY-7" edge="1">
          <mxGeometry width="160" relative="1" as="geometry">
            <mxPoint x="840" y="452" as="sourcePoint" />
            <mxPoint x="840" y="550" as="targetPoint" />
            <Array as="points">
              <mxPoint x="955" y="533" />
            </Array>
          </mxGeometry>
        </mxCell>
        <mxCell id="vWhC-yQqH2UFi3h3dktY-46" value="1..1" style="edgeLabel;html=1;align=center;verticalAlign=middle;resizable=0;points=[];" parent="vWhC-yQqH2UFi3h3dktY-44" vertex="1" connectable="0">
          <mxGeometry x="-0.7423" y="1" relative="1" as="geometry">
            <mxPoint x="11" y="-20" as="offset" />
          </mxGeometry>
        </mxCell>
        <mxCell id="vWhC-yQqH2UFi3h3dktY-48" value="/当前接单写手" style="edgeLabel;html=1;align=center;verticalAlign=middle;resizable=0;points=[];" parent="vWhC-yQqH2UFi3h3dktY-44" vertex="1" connectable="0">
          <mxGeometry x="-0.8859" y="-1" relative="1" as="geometry">
            <mxPoint x="-37" y="-3" as="offset" />
          </mxGeometry>
        </mxCell>
        <mxCell id="vWhC-yQqH2UFi3h3dktY-49" value="0..*" style="edgeLabel;html=1;align=center;verticalAlign=middle;resizable=0;points=[];" parent="vWhC-yQqH2UFi3h3dktY-44" vertex="1" connectable="0">
          <mxGeometry x="0.9236" y="-1" relative="1" as="geometry">
            <mxPoint x="1" y="-8" as="offset" />
          </mxGeometry>
        </mxCell>
        <mxCell id="vWhC-yQqH2UFi3h3dktY-50" value="" style="endArrow=none;startArrow=diamondThin;endFill=0;startFill=1;html=1;verticalAlign=bottom;labelBackgroundColor=none;strokeWidth=1;startSize=8;endSize=8;rounded=0;entryX=0;entryY=0.25;entryDx=0;entryDy=0;exitX=1;exitY=0.5;exitDx=0;exitDy=0;" parent="1" source="vWhC-yQqH2UFi3h3dktY-52" target="vWhC-yQqH2UFi3h3dktY-29" edge="1">
          <mxGeometry width="160" relative="1" as="geometry">
            <mxPoint x="850" y="559" as="sourcePoint" />
            <mxPoint x="850" y="634" as="targetPoint" />
          </mxGeometry>
        </mxCell>
        <mxCell id="vWhC-yQqH2UFi3h3dktY-51" value="0..1" style="edgeLabel;html=1;align=center;verticalAlign=middle;resizable=0;points=[];" parent="vWhC-yQqH2UFi3h3dktY-50" vertex="1" connectable="0">
          <mxGeometry x="0.7619" y="1" relative="1" as="geometry">
            <mxPoint x="-2" y="9" as="offset" />
          </mxGeometry>
        </mxCell>
        <mxCell id="vWhC-yQqH2UFi3h3dktY-52" value="时间段" style="rounded=0;whiteSpace=wrap;html=1;" parent="1" vertex="1">
          <mxGeometry x="790" y="548" width="40" height="20" as="geometry" />
        </mxCell>
        <mxCell id="vWhC-yQqH2UFi3h3dktY-53" value="" style="endArrow=none;startArrow=diamondThin;endFill=0;startFill=1;html=1;verticalAlign=bottom;labelBackgroundColor=none;strokeWidth=1;startSize=8;endSize=8;rounded=0;exitX=0.5;exitY=1;exitDx=0;exitDy=0;entryX=0.5;entryY=0;entryDx=0;entryDy=0;" parent="1" source="vWhC-yQqH2UFi3h3dktY-8" target="vWhC-yQqH2UFi3h3dktY-36" edge="1">
          <mxGeometry width="160" relative="1" as="geometry">
            <mxPoint x="860" y="769" as="sourcePoint" />
            <mxPoint x="860" y="837" as="targetPoint" />
          </mxGeometry>
        </mxCell>
        <mxCell id="vWhC-yQqH2UFi3h3dktY-54" value="0..*" style="edgeLabel;html=1;align=center;verticalAlign=middle;resizable=0;points=[];" parent="vWhC-yQqH2UFi3h3dktY-53" vertex="1" connectable="0">
          <mxGeometry x="0.7619" y="1" relative="1" as="geometry">
            <mxPoint x="9" y="-1" as="offset" />
          </mxGeometry>
        </mxCell>
        <mxCell id="vWhC-yQqH2UFi3h3dktY-55" value="账户" style="swimlane;fontStyle=0;childLayout=stackLayout;horizontal=1;startSize=26;fillColor=none;horizontalStack=0;resizeParent=1;resizeParentMax=0;resizeLast=0;collapsible=1;marginBottom=0;whiteSpace=wrap;html=1;" parent="1" vertex="1">
          <mxGeometry x="1160" y="452" width="140" height="52" as="geometry" />
        </mxCell>
        <mxCell id="vWhC-yQqH2UFi3h3dktY-56" value="提现单据" style="swimlane;fontStyle=0;childLayout=stackLayout;horizontal=1;startSize=26;fillColor=none;horizontalStack=0;resizeParent=1;resizeParentMax=0;resizeLast=0;collapsible=1;marginBottom=0;whiteSpace=wrap;html=1;" parent="1" vertex="1">
          <mxGeometry x="1410" y="452" width="140" height="52" as="geometry" />
        </mxCell>
        <mxCell id="vWhC-yQqH2UFi3h3dktY-57" value="" style="endArrow=none;startArrow=diamondThin;endFill=0;startFill=1;html=1;verticalAlign=bottom;labelBackgroundColor=none;strokeWidth=1;startSize=8;endSize=8;rounded=0;exitX=1;exitY=0.5;exitDx=0;exitDy=0;entryX=0;entryY=0.5;entryDx=0;entryDy=0;" parent="1" source="vWhC-yQqH2UFi3h3dktY-55" target="vWhC-yQqH2UFi3h3dktY-56" edge="1">
          <mxGeometry width="160" relative="1" as="geometry">
            <mxPoint x="1370" y="510" as="sourcePoint" />
            <mxPoint x="1370" y="588" as="targetPoint" />
          </mxGeometry>
        </mxCell>
        <mxCell id="vWhC-yQqH2UFi3h3dktY-58" value="0..*" style="edgeLabel;html=1;align=center;verticalAlign=middle;resizable=0;points=[];" parent="vWhC-yQqH2UFi3h3dktY-57" vertex="1" connectable="0">
          <mxGeometry x="0.7619" y="1" relative="1" as="geometry">
            <mxPoint y="-6" as="offset" />
          </mxGeometry>
        </mxCell>
      </root>
    </mxGraphModel>
  </diagram>
</mxfile>
